<?xml version="1.0" standalone="no"?>
<!DOCTYPE svg PUBLIC "-//W3C//DTD SVG 20010904//EN"
 "http://www.w3.org/TR/2001/REC-SVG-20010904/DTD/svg10.dtd">
<svg version="1.0" xmlns="http://www.w3.org/2000/svg"
 width="1024.000000pt" height="1024.000000pt" viewBox="0 0 1024.000000 1024.000000"
 preserveAspectRatio="xMidYMid meet">
<metadata>
Created by potrace 1.11, written by Peter Selinger 2001-2013
</metadata>
<g transform="translate(0.000000,1024.000000) scale(0.100000,-0.100000)"
fill="#000000" stroke="none">
<path d="M5867 9724 c-2 -2 -57 -6 -123 -9 -65 -3 -139 -8 -164 -11 -25 -4
-74 -8 -110 -9 -77 -4 -133 -11 -177 -24 -18 -5 -40 -8 -50 -6 -10 1 -22 -1
-28 -5 -5 -5 -28 -11 -50 -15 -49 -8 -70 -13 -70 -16 0 -1 -9 -3 -20 -4 -121
-17 -273 -53 -302 -71 -13 -8 -23 -12 -23 -9 0 3 -13 -1 -30 -10 -16 -9 -30
-13 -30 -11 0 3 -15 -1 -34 -9 -18 -8 -44 -16 -57 -19 -13 -2 -37 -9 -54 -16
-16 -6 -32 -11 -35 -10 -3 0 -61 -20 -130 -46 -120 -44 -152 -56 -157 -55 -6
1 -83 -28 -124 -46 -51 -23 -82 -36 -89 -37 -14 -3 -102 -39 -182 -75 -26 -12
-51 -21 -57 -21 -5 0 -11 -3 -13 -7 -3 -8 -92 -53 -103 -53 -4 0 -82 -50 -121
-77 -17 -13 -46 -31 -119 -74 -38 -23 -78 -49 -87 -57 -10 -8 -18 -11 -18 -6
0 5 -4 4 -8 -1 -12 -18 -221 -124 -304 -155 -31 -12 -67 -32 -80 -45 -13 -14
-28 -25 -35 -25 -7 0 -16 -6 -20 -14 -7 -12 -99 -68 -153 -93 -8 -4 -49 -33
-90 -66 -41 -32 -91 -68 -110 -78 -36 -20 -70 -43 -150 -101 -99 -71 -224
-227 -295 -368 -15 -30 -31 -57 -34 -60 -7 -5 -25 -39 -106 -195 -20 -38 -41
-75 -45 -80 -16 -19 -180 -352 -180 -365 0 -13 -30 -93 -88 -235 -20 -49 -37
-92 -37 -95 -3 -31 -19 -88 -27 -97 -6 -7 -8 -13 -5 -13 6 0 -47 -181 -61
-207 -11 -19 -67 -242 -78 -308 -4 -22 -8 -49 -10 -60 -2 -11 -9 -47 -15 -80
-15 -85 -17 -100 -19 -100 0 0 -3 -40 -6 -89 -3 -49 -8 -94 -11 -100 -4 -6 -8
-138 -9 -294 -2 -279 3 -344 35 -432 5 -14 17 -52 26 -85 9 -33 28 -91 42
-130 13 -38 24 -71 23 -73 0 -1 11 -27 25 -57 14 -31 25 -60 25 -65 0 -5 13
-37 29 -72 16 -35 38 -88 49 -118 11 -30 36 -84 55 -120 19 -36 53 -102 75
-147 22 -44 56 -106 76 -137 20 -31 36 -59 36 -62 0 -9 59 -92 105 -149 24
-28 46 -63 50 -76 4 -13 23 -40 42 -60 41 -43 116 -147 172 -240 22 -36 81
-114 131 -175 50 -60 101 -120 112 -134 12 -14 33 -39 47 -56 14 -17 42 -50
61 -74 73 -91 117 -135 193 -192 103 -76 132 -109 170 -193 18 -39 42 -86 53
-105 21 -35 73 -135 223 -436 99 -197 101 -233 16 -193 -152 69 -280 135 -308
157 -12 10 -152 73 -171 77 -6 1 -33 12 -59 23 -27 12 -53 22 -58 22 -5 0 -17
4 -27 10 -27 15 -110 50 -119 50 -4 0 -29 11 -55 24 -25 13 -60 28 -77 34 -17
6 -31 17 -31 25 0 7 -11 24 -25 37 -14 13 -25 28 -25 33 0 7 -74 100 -142 179
-13 14 -39 46 -58 70 -19 23 -71 77 -114 118 -44 41 -105 100 -136 130 -31 30
-76 71 -101 91 -45 37 -184 129 -195 129 -3 0 -12 6 -19 13 -21 18 -35 29 -80
62 -50 37 -117 107 -157 165 -18 25 -34 47 -37 50 -4 3 -33 41 -66 85 -33 44
-62 82 -65 85 -15 15 -110 241 -110 261 0 4 -7 24 -16 45 -9 22 -16 40 -15 41
0 2 -9 24 -20 50 -12 27 -22 56 -24 65 -7 34 -86 193 -107 215 -41 44 -70 25
-85 -54 -15 -75 -6 -344 12 -374 3 -5 13 -35 21 -66 8 -32 18 -67 23 -78 5
-11 15 -38 22 -60 6 -22 15 -44 19 -50 4 -5 15 -35 25 -65 10 -30 29 -71 42
-90 12 -19 23 -40 23 -47 0 -7 4 -13 8 -13 5 0 15 -12 23 -27 13 -26 29 -48
54 -77 6 -6 30 -38 54 -70 95 -128 201 -213 371 -300 52 -27 102 -53 110 -60
8 -6 31 -20 50 -30 19 -10 46 -29 60 -43 24 -23 152 -121 200 -153 12 -8 28
-21 36 -27 7 -7 16 -13 19 -13 6 0 63 -44 123 -95 27 -23 49 -36 157 -90 78
-38 185 -130 185 -158 0 -7 21 -35 46 -62 25 -28 51 -57 57 -66 90 -125 227
-253 319 -298 24 -11 55 -32 70 -46 15 -14 32 -25 37 -25 5 0 16 -6 23 -13 28
-26 114 -59 166 -63 33 -2 70 -14 96 -29 24 -14 65 -32 92 -40 44 -14 73 -35
164 -119 39 -36 78 -58 90 -51 5 3 10 -1 10 -10 0 -18 66 -125 104 -170 69
-79 99 -116 154 -190 96 -128 149 -187 207 -230 22 -16 42 -32 45 -35 9 -10
112 -71 136 -81 36 -13 29 -23 -26 -43 -45 -16 -55 -25 -87 -82 -45 -78 -79
-97 -178 -99 -39 -1 -81 -7 -94 -14 -38 -21 -114 -98 -118 -120 -4 -29 11 -33
36 -10 22 21 102 44 184 54 149 18 214 56 256 150 21 49 73 89 116 91 16 1 35
3 40 4 28 6 34 -1 28 -32 -3 -18 -9 -35 -13 -38 -4 -3 -11 -19 -14 -37 -20
-91 -69 -147 -159 -183 -81 -32 -112 -83 -83 -137 l13 -26 12 34 c10 32 55 70
89 75 7 1 24 9 37 18 13 9 30 16 38 16 23 0 64 53 82 107 9 29 21 55 25 58 18
11 77 -66 100 -133 22 -59 34 -162 20 -162 -3 0 -11 -14 -19 -31 -7 -16 -16
-28 -19 -25 -4 5 -32 -38 -32 -50 0 -2 11 2 25 8 14 6 25 15 25 20 0 5 4 7 8
4 4 -2 21 16 37 42 27 42 30 54 29 133 0 86 -15 138 -51 177 -7 7 -13 18 -13
24 0 6 -7 16 -16 23 -16 11 -25 88 -11 101 4 4 24 6 44 5 60 -4 73 -4 163 3
154 12 329 3 400 -20 51 -16 83 -20 198 -23 23 -1 42 -5 42 -11 0 -22 -90 -95
-130 -105 -3 0 -16 -7 -30 -14 -13 -8 -37 -14 -54 -13 -79 2 -148 -75 -162
-181 -5 -37 -3 -49 15 -68 17 -19 21 -20 21 -6 0 9 4 17 9 17 5 0 13 10 17 23
6 21 97 116 112 118 120 14 161 33 195 92 35 59 53 73 72 57 8 -7 13 -16 10
-20 -3 -5 -1 -12 5 -15 6 -4 10 -14 9 -23 -1 -10 3 -30 9 -45 7 -16 12 -35 12
-43 0 -9 5 -25 12 -37 26 -49 16 -167 -14 -167 -6 0 -9 -3 -5 -6 3 -4 0 -13
-8 -21 -8 -8 -15 -21 -15 -29 0 -18 30 -2 74 41 32 31 33 36 38 155 2 47 -30
200 -42 200 -4 0 -6 12 -5 27 1 24 5 28 35 30 20 1 28 -2 21 -6 -9 -6 -6 -14
13 -29 14 -11 26 -22 26 -25 0 -3 15 -21 33 -40 46 -50 100 -116 111 -134 16
-29 71 -73 121 -97 42 -19 67 -23 152 -24 57 -1 121 -6 144 -12 23 -6 43 -9
46 -6 5 5 -72 87 -82 86 -3 0 -19 7 -36 16 -18 9 -61 20 -96 25 -36 5 -71 16
-79 24 -9 8 -19 15 -24 15 -4 0 -13 12 -18 28 -9 24 -75 102 -86 102 -7 0
-101 90 -96 91 3 0 16 3 30 6 14 3 59 6 100 7 150 2 244 -12 262 -38 4 -6 8
-7 8 -2 0 5 7 3 15 -4 8 -7 15 -10 15 -7 0 3 33 -8 73 -23 143 -56 283 -113
327 -134 25 -11 48 -21 53 -22 4 -1 8 -2 10 -3 4 -2 165 -59 257 -90 47 -16
108 -32 135 -35 28 -4 70 -16 94 -28 24 -12 71 -24 105 -27 91 -8 277 -3 306
9 14 5 36 11 50 13 14 1 39 9 55 18 23 11 60 14 150 13 66 -1 134 -5 150 -8
86 -18 184 -18 230 -1 25 10 42 21 37 24 -9 6 -32 67 -36 95 -3 19 -68 118
-91 139 -32 28 -75 48 -86 41 -6 -3 -34 -7 -63 -8 -28 -1 -57 -5 -64 -9 -15
-10 -44 -16 -102 -22 -25 -2 -63 -9 -85 -14 -22 -5 -51 -12 -65 -15 -14 -3
-45 -11 -70 -17 -25 -6 -54 -13 -65 -14 -11 -2 -22 -4 -25 -5 -26 -10 -158 7
-255 31 -22 6 -56 14 -75 18 -19 5 -55 16 -80 25 -25 10 -61 23 -80 29 -19 6
-38 15 -41 20 -3 5 -10 9 -15 9 -5 0 -16 4 -24 9 -13 8 -13 10 0 19 8 5 26 10
40 10 15 0 31 5 38 12 7 7 12 9 12 5 0 -3 17 0 38 6 46 16 44 16 117 -12 11
-5 23 -9 28 -9 4 -1 20 -7 35 -14 34 -16 54 -16 115 2 53 16 59 25 22 28 -34
3 -125 42 -149 64 -40 37 -90 53 -166 54 -41 0 -80 -3 -85 -7 -6 -4 -25 -10
-42 -14 -18 -3 -45 -10 -60 -16 -47 -19 -104 -23 -101 -8 4 20 20 33 54 47 16
7 35 21 42 30 6 9 28 42 48 72 33 48 68 84 84 85 3 1 39 11 80 24 41 13 83 25
94 27 35 6 30 14 -10 14 -21 0 -59 1 -84 3 -38 2 -82 -3 -136 -16 -34 -8 -133
-98 -134 -121 0 -5 -7 -16 -15 -25 -74 -79 -111 -112 -129 -116 -6 -1 -18 -5
-28 -9 -9 -4 -40 -5 -70 -3 -51 5 -105 28 -302 128 -28 15 -58 25 -66 24 -8
-1 -31 5 -50 13 -23 9 -69 15 -130 15 -52 0 -100 4 -107 9 -7 6 -14 5 -18 -2
-3 -6 -10 -8 -15 -5 -11 7 33 55 50 55 7 0 26 11 44 25 46 38 49 39 76 51 33
14 179 9 287 -10 17 -4 35 -2 38 4 3 5 2 10 -4 10 -5 0 -16 7 -24 15 -9 8 -38
17 -65 20 -27 3 -67 12 -88 21 -21 10 -59 18 -84 20 -62 4 -172 -23 -215 -52
-20 -13 -40 -24 -44 -24 -5 0 -31 -15 -58 -33 -68 -45 -162 -66 -248 -53 -22
3 -69 8 -105 11 -73 6 -77 9 -84 49 -3 16 -16 45 -28 65 -13 20 -34 61 -48 91
-13 30 -31 66 -40 80 -9 14 -41 75 -70 135 -29 61 -59 117 -67 126 -7 8 -44
76 -81 150 -38 74 -81 157 -95 184 -39 74 -102 214 -117 260 -7 22 -16 45 -20
50 -10 13 -49 131 -56 169 -2 16 -9 36 -13 45 -5 9 -9 18 -9 21 -1 19 -18 69
-39 113 -14 28 -29 61 -34 72 -9 19 -62 101 -102 158 -18 25 -18 27 2 54 34
46 120 306 138 417 3 16 9 40 14 53 5 13 9 38 9 54 0 17 4 39 10 49 5 10 17
52 26 92 8 40 18 84 21 98 3 14 5 34 5 45 -1 11 4 38 10 60 6 22 12 45 14 50
1 6 6 28 12 50 6 22 13 52 16 67 5 29 42 140 76 228 12 30 27 73 34 95 29 91
213 408 243 419 17 7 85 -97 123 -185 77 -182 117 -301 146 -438 3 -14 9 -31
14 -40 4 -8 4 -25 -1 -38 -6 -17 -3 -29 16 -51 13 -15 27 -46 30 -67 4 -22 11
-47 15 -55 4 -8 11 -41 14 -73 4 -33 12 -71 17 -85 6 -15 10 -29 9 -32 -3 -13
33 -156 42 -167 6 -7 8 -13 4 -13 -3 0 -1 -11 4 -24 5 -13 12 -50 16 -83 3
-32 8 -60 9 -63 2 -3 6 -37 10 -75 3 -39 8 -77 10 -85 3 -8 7 -33 10 -55 3
-22 8 -56 12 -75 7 -43 9 -55 17 -104 3 -21 8 -46 10 -55 8 -24 15 -69 21
-131 3 -30 7 -66 10 -80 3 -13 7 -58 10 -100 9 -125 16 -177 39 -285 2 -11 7
-45 10 -75 7 -56 13 -95 16 -95 3 0 20 -77 44 -200 24 -118 31 -138 103 -280
66 -131 116 -196 195 -255 46 -34 97 -31 143 7 22 19 30 22 34 12 2 -8 10 -18
17 -22 8 -4 14 -13 14 -18 0 -19 65 -69 136 -104 65 -32 103 -39 120 -23 3 4
12 4 19 2 16 -7 24 23 18 72 -8 81 -6 74 -106 284 -12 25 -50 90 -86 145 -59
90 -145 263 -156 311 -2 11 -9 35 -15 54 -46 143 -46 419 0 635 11 50 21 117
24 150 2 33 9 80 15 105 5 25 12 59 15 75 11 59 21 92 87 290 12 36 15 50 23
101 4 22 11 55 16 74 5 19 12 52 16 74 8 52 12 74 18 94 3 9 8 35 10 57 12 90
16 105 30 127 18 28 26 81 32 213 7 166 7 556 -1 625 -11 104 -18 150 -25 170
-1 3 -2 8 -1 12 2 13 -40 118 -47 118 -4 0 -13 14 -20 30 -8 17 -29 46 -48 65
-18 19 -31 35 -28 35 2 0 -1 6 -8 14 -7 8 -16 12 -20 9 -5 -2 -8 0 -8 5 0 9
-69 59 -80 59 -3 0 -16 6 -30 13 -14 8 -27 15 -30 16 -3 1 -15 5 -27 9 -13 4
-23 11 -23 16 0 5 -7 9 -15 9 -8 0 -15 5 -15 10 0 6 -8 10 -17 10 -9 0 -14 3
-10 6 7 7 -17 34 -29 34 -4 0 -15 6 -23 14 -9 8 -45 29 -81 48 -58 29 -74 32
-145 32 -66 0 -130 -7 -130 -14 0 -1 -11 -3 -24 -6 -13 -2 -40 -11 -60 -20
-47 -21 -101 -43 -121 -49 -14 -4 -69 -30 -102 -47 -21 -11 -38 -16 -38 -11 0
4 -5 0 -11 -9 -5 -10 -15 -18 -20 -18 -6 0 -23 -9 -39 -20 l-28 -20 -33 23
c-19 13 -57 40 -85 60 -28 20 -59 37 -68 37 -42 0 -4 57 126 192 15 15 25 28
22 28 -4 0 4 9 17 20 13 10 20 19 16 20 -7 0 0 10 31 45 6 7 12 18 12 23 0 5
17 28 38 50 51 56 62 70 62 80 0 5 9 17 20 27 11 10 20 24 20 32 0 7 4 13 10
13 5 0 20 11 34 25 14 14 22 25 18 25 -14 0 58 40 80 44 13 3 46 11 73 20 72
21 191 37 405 52 124 8 434 9 483 1 42 -8 100 -30 119 -47 7 -5 29 -24 48 -40
19 -16 39 -30 44 -30 11 0 110 -104 114 -119 1 -7 31 -42 67 -79 35 -37 65
-73 65 -79 0 -7 4 -13 8 -13 4 0 15 -12 24 -27 9 -16 41 -54 72 -87 31 -32 56
-63 56 -68 0 -5 4 -7 8 -4 8 5 92 -127 92 -145 0 -5 5 -9 10 -9 6 0 10 -5 10
-10 0 -6 8 -20 18 -30 25 -27 123 -219 117 -230 -3 -4 2 -10 10 -14 8 -3 15
-16 15 -29 0 -13 4 -27 9 -32 4 -6 16 -31 26 -57 20 -53 14 -80 -36 -180 -16
-32 -25 -58 -21 -58 4 0 -1 -5 -10 -11 -10 -5 -18 -16 -18 -24 0 -7 -6 -20
-13 -27 -6 -7 -26 -39 -42 -72 -17 -32 -43 -84 -59 -115 -15 -31 -30 -64 -31
-73 -2 -9 -9 -27 -16 -40 -7 -13 -14 -27 -16 -33 -1 -5 -16 -59 -33 -120 -17
-60 -33 -117 -35 -125 -2 -8 -13 -46 -25 -85 -47 -155 -54 -257 -22 -301 23
-31 36 -30 86 8 57 45 79 67 105 110 12 20 31 40 42 43 10 4 17 11 14 16 -6 9
44 111 58 117 4 2 7 8 7 14 0 5 19 42 42 81 23 40 63 113 88 162 39 77 49 90
73 93 21 3 27 -1 28 -17 1 -12 2 -24 3 -28 1 -5 6 -24 10 -43 5 -19 13 -46 19
-60 5 -14 12 -33 13 -42 13 -65 109 -278 145 -322 5 -6 28 -36 52 -66 23 -30
45 -57 49 -58 5 -2 8 -8 8 -14 0 -5 6 -15 13 -22 6 -7 36 -41 66 -75 30 -34
93 -101 139 -149 46 -48 92 -105 102 -127 32 -67 53 -119 56 -137 2 -9 12 -31
23 -50 25 -41 79 -239 83 -303 1 -11 5 -24 9 -30 4 -5 10 -34 13 -64 4 -30 9
-66 13 -80 8 -32 42 -71 63 -71 41 0 96 81 108 160 11 71 2 372 -13 422 -7 21
-17 47 -51 125 -8 17 -14 35 -14 40 0 33 -273 465 -307 486 -7 4 -13 11 -13
16 0 4 -19 28 -42 53 -54 58 -119 179 -175 327 -24 64 -46 123 -48 131 -2 8
-14 40 -25 70 -22 56 -59 163 -65 190 -2 8 -14 42 -26 76 l-23 61 27 51 c15
29 34 78 43 110 9 31 22 78 29 104 13 45 16 61 32 148 8 44 3 225 -7 225 -1 0
-3 25 -5 55 -2 30 -6 66 -9 80 -3 14 -7 35 -10 47 -2 12 -6 54 -7 94 -1 40 -8
85 -16 99 -7 14 -13 31 -13 38 0 13 -21 67 -41 104 -5 10 -9 26 -9 37 0 10 -7
24 -15 31 -8 7 -15 19 -15 26 0 25 -117 262 -164 332 -50 75 -109 140 -175
192 -24 19 -55 45 -68 57 -13 11 -42 36 -64 54 -23 18 -58 50 -80 71 -21 21
-42 38 -47 38 -4 0 -23 14 -42 30 -19 16 -40 30 -46 30 -7 0 -28 18 -48 40
-31 34 -142 103 -171 106 -35 3 -107 18 -145 31 -25 8 -79 16 -121 18 -42 2
-96 7 -120 10 -24 4 -55 8 -69 8 -32 1 -119 -23 -126 -34 -3 -5 -14 -9 -25 -9
-27 0 -163 -67 -185 -91 -9 -10 -21 -19 -25 -19 -12 0 -123 -72 -127 -82 -2
-4 -7 -8 -12 -8 -4 0 -51 -29 -103 -65 -52 -36 -98 -65 -102 -65 -3 0 -11 -4
-18 -10 -7 -5 -52 -40 -102 -77 -110 -82 -186 -143 -245 -200 -35 -33 -55 -44
-87 -47 -62 -6 -253 -103 -503 -257 -162 -99 -196 -126 -356 -284 -61 -60
-115 -110 -120 -109 -5 0 -28 6 -52 13 -41 12 -43 13 -37 44 3 18 8 70 10 117
4 73 10 117 20 165 2 6 9 30 16 55 7 25 13 47 14 50 0 3 9 30 20 60 22 63 21
61 30 115 3 22 8 47 11 55 3 8 7 26 10 40 2 14 10 52 19 85 8 33 18 71 20 85
3 14 7 30 10 37 2 6 11 56 21 110 9 54 17 103 19 108 1 6 5 33 9 60 4 28 10
61 12 75 3 14 7 57 9 95 6 91 15 147 27 163 6 6 8 12 5 12 -4 0 0 17 7 38 8
21 17 61 20 88 4 27 9 58 11 69 2 11 7 40 10 65 3 25 12 67 20 94 8 27 13 51
10 54 -2 3 0 13 5 23 6 10 17 48 25 86 24 106 25 108 69 205 14 31 26 60 26
65 0 21 118 176 195 255 47 48 85 90 85 93 0 4 32 35 128 124 20 18 65 60 100
92 34 33 69 59 77 59 8 0 15 5 15 10 0 6 9 10 20 10 11 0 20 3 20 8 0 4 10 12
23 18 12 6 65 34 117 62 95 50 559 213 645 226 22 3 51 8 65 11 107 24 197 36
238 32 23 -2 42 -1 42 2 0 4 21 6 48 5 65 -4 155 -5 232 -3 59 2 128 -5 183
-18 12 -2 29 -6 37 -7 99 -18 214 -48 265 -70 27 -12 92 -35 120 -43 68 -18
104 -24 123 -20 18 4 30 -5 57 -42 19 -25 39 -51 45 -58 5 -7 10 -16 10 -20 0
-5 9 -15 20 -23 11 -8 20 -18 20 -23 0 -5 11 -18 25 -29 14 -11 23 -23 21 -27
-3 -4 5 -18 18 -32 12 -13 38 -49 57 -79 20 -30 53 -79 75 -107 47 -63 94
-153 142 -278 47 -119 63 -164 78 -220 9 -33 20 -76 25 -95 21 -75 27 -100 23
-100 -3 0 0 -9 6 -20 6 -11 13 -37 16 -59 5 -35 25 -129 39 -185 2 -10 16 -60
31 -110 15 -50 26 -108 25 -128 -3 -64 83 -293 159 -425 49 -85 315 -373 344
-373 8 0 16 -3 18 -7 7 -17 133 -81 200 -102 69 -22 83 -24 164 -27 106 -4
157 10 193 51 54 61 28 120 -83 193 -39 25 -75 52 -79 59 -4 7 -12 13 -17 13
-9 0 -32 17 -64 45 -6 6 -29 22 -51 35 -22 13 -46 30 -53 37 -7 7 -17 13 -21
13 -4 0 -18 8 -30 18 -11 9 -38 30 -59 46 -84 67 -185 249 -229 415 -58 223
-69 269 -78 336 -1 11 -7 38 -13 60 -6 22 -12 43 -12 47 -1 4 -6 22 -11 40 -9
29 -16 59 -35 148 -3 14 -9 41 -14 60 -5 19 -12 51 -15 70 -9 49 -53 176 -81
232 -14 27 -24 50 -25 53 0 2 -7 21 -15 42 -9 20 -17 45 -19 54 -2 10 -9 27
-15 38 -6 12 -7 21 -3 21 4 1 -4 11 -19 23 -14 12 -42 51 -61 87 -61 115 -72
134 -85 149 -8 8 -25 33 -39 55 -14 23 -30 44 -35 47 -5 3 -9 9 -9 13 0 3 -2
13 -6 22 -10 26 12 36 84 38 79 2 297 67 307 91 12 32 -39 105 -77 111 -6 1
-32 7 -57 14 -25 7 -52 13 -61 15 -9 2 -47 12 -85 23 -64 19 -140 37 -191 47
-12 2 -30 8 -40 12 -10 5 -25 9 -33 8 -8 -1 -26 3 -40 8 -14 5 -36 10 -50 12
-70 9 -83 15 -108 45 -28 34 -140 144 -182 179 -14 12 -63 49 -110 83 -47 34
-101 73 -120 87 -57 42 -93 66 -128 84 -17 9 -45 24 -62 33 -16 8 -30 20 -30
26 0 6 -3 8 -7 5 -3 -4 -11 -3 -17 2 -6 4 -42 18 -81 30 -38 13 -110 38 -160
56 -259 97 -279 103 -355 106 -41 1 -88 6 -105 10 -59 15 -249 32 -258 23z
m283 -325 c25 -6 50 -12 57 -13 7 -1 16 -5 19 -9 4 -4 14 -7 23 -7 9 0 29 -7
45 -15 15 -8 31 -13 35 -11 7 5 90 -16 136 -34 17 -6 32 -11 35 -11 3 0 24 -9
47 -19 22 -10 51 -21 63 -25 32 -10 134 -70 206 -122 34 -23 64 -43 67 -43 4
0 20 -12 36 -27 16 -16 37 -34 45 -41 9 -7 16 -17 16 -22 0 -14 -57 -12 -83 2
-12 6 -38 13 -57 15 -33 2 -59 6 -120 19 -14 2 -56 6 -93 9 -37 2 -72 7 -78
10 -30 19 -401 26 -499 10 -25 -4 -82 -9 -127 -11 -45 -2 -90 -7 -100 -12 -10
-5 -40 -10 -67 -11 -27 -2 -56 -6 -65 -11 -22 -12 -167 -60 -179 -60 -6 0 -58
-23 -117 -51 -58 -28 -123 -53 -143 -55 -58 -7 -155 -34 -172 -48 -8 -7 -33
-21 -55 -31 -22 -11 -42 -22 -45 -25 -3 -3 -21 -17 -40 -30 -19 -14 -42 -32
-51 -40 -9 -8 -27 -22 -39 -32 -12 -9 -56 -49 -99 -90 -42 -40 -102 -94 -132
-120 -104 -88 -267 -261 -295 -312 -6 -11 -23 -43 -38 -70 -14 -27 -26 -53
-26 -59 0 -5 -11 -33 -24 -61 -46 -96 -104 -223 -111 -245 -3 -11 -11 -21 -16
-21 -6 0 -8 -4 -5 -9 3 -5 -4 -31 -16 -57 -11 -27 -23 -68 -25 -92 -2 -24 -9
-54 -15 -65 -7 -12 -11 -26 -10 -31 2 -5 -2 -32 -7 -60 -6 -28 -13 -71 -15
-96 -3 -25 -8 -72 -11 -105 -4 -33 -13 -85 -20 -115 -8 -30 -16 -66 -18 -80
-2 -14 -7 -32 -10 -40 -4 -8 -9 -26 -12 -40 -15 -74 -36 -162 -50 -215 -9 -33
-18 -73 -20 -90 -7 -43 -32 -154 -43 -192 -6 -17 -8 -34 -5 -37 3 -3 1 -12 -6
-20 -6 -7 -14 -29 -16 -47 -7 -52 -33 -171 -44 -201 -5 -14 -7 -29 -4 -32 4
-3 1 -6 -5 -6 -7 0 -12 -8 -12 -17 0 -10 -11 -54 -25 -98 -13 -44 -27 -109
-31 -145 -3 -36 -10 -72 -14 -80 -4 -8 -8 -17 -8 -20 1 -10 -13 -146 -18 -177
-6 -33 -20 -41 -84 -48 -54 -6 -135 -30 -155 -45 -5 -5 -37 -23 -70 -41 -33
-18 -62 -35 -65 -38 -3 -3 -25 -21 -50 -40 -25 -19 -70 -58 -100 -87 -60 -56
-208 -192 -253 -233 -82 -73 -170 -169 -179 -193 -6 -16 -14 -28 -18 -28 -11
0 -98 -154 -106 -186 -3 -13 -9 -24 -13 -24 -10 0 -29 -57 -36 -110 -4 -24 -9
-49 -12 -54 -6 -9 -29 -135 -39 -211 -3 -22 -9 -54 -13 -70 -5 -17 -6 -104 -4
-193 2 -107 0 -162 -7 -162 -16 0 -68 60 -101 116 -16 29 -33 54 -38 56 -4 2
-27 36 -52 76 -24 41 -54 90 -67 110 -12 20 -32 55 -43 77 -12 22 -30 51 -39
65 -10 14 -23 44 -30 68 -8 23 -19 47 -27 53 -7 6 -13 20 -13 30 0 10 -4 20
-9 24 -5 3 -15 22 -22 43 -6 20 -15 39 -18 42 -3 3 -12 23 -19 45 -7 22 -22
58 -32 80 -17 38 -54 134 -55 145 -2 12 -28 87 -40 115 -13 29 -32 99 -54 200
-18 79 -21 96 -26 160 -3 33 -10 78 -15 99 -8 37 -6 517 3 581 3 17 8 53 12
80 4 28 11 61 15 75 5 14 11 41 14 60 2 19 12 76 21 125 42 229 47 264 52 325
3 36 14 92 25 125 11 33 22 68 23 78 2 9 6 21 9 25 3 5 7 35 11 68 3 32 10 61
15 62 6 2 10 17 10 33 0 29 17 90 66 239 14 41 26 80 27 85 15 61 133 311 167
355 15 19 28 38 29 43 1 11 31 68 45 85 63 79 143 161 216 220 24 21 58 51 75
67 31 31 73 66 119 99 15 11 37 28 49 39 12 10 38 27 59 38 20 10 38 22 40 26
5 13 76 63 87 63 6 0 11 5 11 10 0 6 3 9 8 8 4 -1 23 6 42 14 19 9 51 23 70
32 19 8 40 24 47 34 7 11 25 26 40 34 37 19 77 42 83 48 3 3 10 6 16 7 10 2
151 66 222 100 17 9 32 20 32 25 0 5 4 7 9 3 5 -3 17 2 25 11 9 8 16 13 16 10
0 -3 15 3 33 14 17 11 38 20 45 20 7 0 30 12 51 26 22 14 46 26 54 28 8 1 22
8 31 15 9 7 16 10 16 6 0 -5 8 -1 18 7 9 8 42 25 72 37 30 13 62 29 70 36 15
14 186 96 205 99 5 1 15 4 20 7 9 6 143 52 155 54 3 0 15 6 28 13 12 7 22 10
22 6 0 -3 7 -1 15 6 8 7 15 9 15 4 0 -5 4 -4 8 1 12 17 107 59 172 75 25 7 68
22 95 35 58 26 85 37 102 41 7 1 27 10 45 19 44 23 89 35 183 49 17 2 42 9 57
14 14 6 45 13 67 16 22 2 44 7 49 10 5 3 32 8 58 11 27 2 74 10 104 16 30 6
71 11 90 11 19 1 41 5 47 10 7 6 19 8 27 5 7 -3 31 -2 52 3 49 10 111 19 193
25 36 3 66 7 68 8 8 9 293 5 333 -4z m495 -2847 c35 -18 87 -53 96 -65 3 -5
10 -9 15 -9 27 -1 56 -21 65 -45 11 -31 75 -93 96 -93 18 0 122 -104 161 -160
16 -25 47 -63 67 -85 34 -36 106 -150 122 -192 4 -10 17 -29 30 -43 13 -14 23
-30 23 -37 0 -6 6 -18 13 -25 33 -35 100 -277 112 -408 3 -30 8 -75 12 -100 4
-25 7 -63 8 -85 1 -22 5 -70 9 -107 l8 -68 -29 0 c-26 0 -33 9 -83 108 -30 59
-57 109 -60 112 -15 15 -78 148 -73 154 4 3 1 6 -5 6 -7 0 -18 16 -26 35 -8
19 -20 40 -26 47 -6 7 -40 52 -75 100 -35 47 -69 89 -75 93 -5 3 -10 14 -10
25 0 10 -16 32 -35 49 -19 17 -35 33 -35 35 0 14 -277 277 -288 274 -7 -2 -63
31 -72 43 -8 10 -120 58 -150 64 -3 1 -15 4 -28 9 -12 4 -34 9 -50 11 -15 2
-27 4 -27 5 0 2 -23 6 -101 19 -84 13 -241 16 -268 5 -22 -9 -123 -10 -132 -2
-3 3 -23 -3 -44 -13 -38 -18 -60 -24 -60 -14 0 7 129 132 133 129 2 -2 30 12
63 32 32 20 84 47 114 60 30 14 62 29 70 33 9 5 31 12 50 17 45 10 41 9 73 22
16 7 34 12 41 12 6 0 17 5 23 11 6 6 19 12 29 14 11 2 19 4 19 5 0 1 21 4 48
7 26 2 71 12 100 22 57 20 105 17 152 -7z m-1947 -1015 c-2 -12 -11 -31 -21
-42 -10 -11 -24 -31 -31 -45 -30 -58 -59 -105 -69 -112 -6 -3 -20 -4 -31 -2
-12 3 -49 7 -83 11 -36 3 -63 11 -63 17 0 17 126 126 146 126 20 0 104 47 104
58 0 4 12 9 26 10 21 2 25 -2 22 -21z m1230 -445 c46 -53 109 -192 123 -270 6
-30 15 -66 21 -81 5 -14 12 -46 15 -71 3 -25 9 -65 14 -90 10 -54 8 -466 -3
-556 -4 -36 -20 -115 -35 -177 -32 -132 -28 -118 -36 -137 -16 -43 -57 -191
-62 -229 -3 -23 -10 -53 -15 -66 -5 -13 -25 -81 -45 -152 -59 -212 -66 -233
-80 -233 -11 0 -32 57 -41 110 -2 8 -12 49 -23 91 -11 42 -22 97 -25 123 -3
26 -8 52 -11 56 -3 5 -10 56 -15 112 -5 57 -13 123 -19 148 -49 212 -77 321
-106 415 -19 61 -37 128 -41 150 -3 22 -12 52 -20 67 -8 15 -14 29 -13 30 1 2
-5 26 -15 54 -9 28 -18 59 -20 70 -12 58 -61 162 -115 241 -34 49 -61 99 -61
111 0 20 -14 35 -35 38 -5 0 -16 2 -22 2 -27 4 -12 41 25 63 20 13 39 26 42
31 3 4 28 17 55 28 28 12 65 29 84 37 18 8 41 17 50 18 9 2 17 4 19 5 2 3 2 3
57 15 51 11 57 12 78 13 9 1 17 9 17 17 0 15 55 49 68 42 4 -3 15 -2 25 2 10
4 45 6 79 6 54 -2 62 -5 86 -33z m-1735 -20 c16 -7 34 -12 42 -12 7 0 36 -16
64 -35 28 -19 55 -35 61 -35 14 0 6 -39 -17 -80 -38 -67 -47 -85 -48 -90 -1
-3 -11 -27 -24 -55 -35 -77 -39 -88 -44 -120 -6 -42 -28 -127 -38 -146 -4 -9
-13 -45 -19 -80 -14 -74 -15 -79 -22 -99 -6 -15 -36 -120 -43 -150 -2 -8 -8
-27 -14 -42 -6 -16 -8 -28 -5 -28 4 0 2 -6 -4 -13 -6 -7 -13 -30 -15 -52 -2
-22 -7 -47 -10 -55 -3 -8 -7 -24 -9 -34 -2 -12 -13 -21 -29 -23 -23 -3 -28 1
-38 39 -6 24 -13 59 -15 78 -2 19 -11 76 -20 125 -9 50 -19 126 -23 170 -11
122 -4 449 11 521 3 16 8 42 10 58 3 16 23 48 45 70 21 23 49 53 62 67 13 14
31 28 39 31 23 8 72 3 103 -10z m-671 -87 c-1 -22 -1 -60 -1 -85 6 -221 8
-208 -28 -263 -18 -28 -36 -53 -40 -56 -5 -3 -17 -22 -27 -41 -11 -19 -31 -53
-44 -75 -39 -61 -85 -154 -111 -220 -13 -33 -35 -84 -47 -113 -13 -29 -36 -80
-50 -114 -14 -34 -38 -85 -53 -113 -15 -28 -33 -73 -41 -100 -7 -28 -21 -68
-31 -90 -9 -22 -23 -58 -29 -80 -7 -22 -16 -44 -20 -50 -5 -5 -12 -28 -16 -50
-4 -22 -13 -54 -20 -71 -7 -17 -11 -34 -8 -37 3 -3 1 -14 -5 -26 -6 -11 -13
-37 -16 -59 -3 -22 -12 -53 -20 -68 -8 -16 -15 -37 -15 -46 0 -47 -47 -24 -55
28 -8 52 -25 116 -37 138 -7 11 -13 28 -13 36 0 8 -4 21 -8 28 -5 7 -10 25
-13 40 -2 15 -9 36 -14 47 -9 21 -27 102 -38 175 -9 58 -9 269 0 340 10 85 39
201 60 243 10 20 16 37 12 37 -4 0 -2 6 3 13 6 6 13 23 16 37 4 14 14 34 24
45 10 11 24 31 31 45 7 14 20 37 30 51 120 182 201 262 366 361 71 43 131 78
134 78 3 0 13 6 21 14 25 23 75 46 91 43 11 -2 14 -13 12 -42z m1194 -123 c22
-7 49 -21 59 -32 17 -19 17 -21 -7 -52 -14 -18 -42 -50 -62 -71 -20 -21 -36
-41 -36 -43 0 -3 -11 -20 -24 -37 -23 -30 -54 -85 -107 -187 -26 -48 -38 -62
-51 -54 -14 9 -9 49 12 89 11 21 23 61 26 87 4 27 11 51 15 54 5 3 9 11 9 19
0 8 5 26 12 42 6 15 12 31 13 36 2 4 3 8 4 10 2 1 4 12 7 24 2 11 13 46 24 76
23 61 26 62 106 39z m-1160 -599 c1 -75 8 -138 29 -243 3 -14 8 -53 10 -88 8
-98 26 -192 46 -237 5 -11 11 -29 12 -40 2 -11 7 -27 10 -35 4 -8 8 -26 10
-40 2 -14 9 -38 16 -55 15 -36 81 -224 86 -245 16 -63 47 -137 155 -365 16
-33 32 -73 35 -90 12 -54 27 -84 44 -90 10 -3 23 -15 29 -28 15 -31 43 -99 47
-117 9 -37 57 -164 90 -236 79 -173 261 -531 301 -591 8 -13 37 -67 65 -120
28 -54 65 -118 83 -143 39 -55 86 -139 86 -154 0 -6 9 -22 20 -36 11 -14 20
-33 20 -42 0 -10 4 -18 9 -18 5 0 11 -11 15 -24 3 -13 26 -53 51 -89 25 -36
45 -70 45 -74 0 -5 9 -14 20 -21 25 -15 26 -35 3 -28 -31 9 -125 17 -238 19
-116 3 -207 24 -310 72 -28 13 -63 27 -77 30 -15 4 -32 13 -39 21 -6 8 -18 14
-25 14 -8 0 -14 4 -14 10 0 5 -17 19 -39 29 -47 25 -104 81 -206 206 -22 27
-48 57 -57 67 -10 10 -18 20 -18 23 0 3 -15 25 -34 50 -19 24 -37 55 -41 67
-4 13 -17 46 -31 73 -13 28 -44 104 -69 170 -51 133 -75 185 -88 185 -4 0 -21
28 -36 63 -39 84 -124 264 -173 364 -23 47 -45 80 -51 76 -5 -3 -7 -2 -4 4 4
6 -8 31 -26 58 -18 26 -42 65 -54 87 -18 33 -84 121 -103 138 -3 3 -19 23 -35
45 -26 35 -30 48 -29 100 1 55 7 109 20 190 9 55 13 80 19 125 3 25 8 57 11
72 4 25 44 145 64 193 5 11 20 54 34 95 39 115 104 272 127 303 29 39 73 127
99 197 12 33 26 60 31 60 5 0 9 7 9 16 0 31 23 94 35 94 7 0 11 -24 11 -67z"/>
</g>
</svg>
