<?xml version="1.0" standalone="no"?>
<!DOCTYPE svg PUBLIC "-//W3C//DTD SVG 20010904//EN"
 "http://www.w3.org/TR/2001/REC-SVG-20010904/DTD/svg10.dtd">
<svg version="1.0" xmlns="http://www.w3.org/2000/svg"
 width="1000.000000pt" height="1000.000000pt" viewBox="0 0 1000.000000 1000.000000"
 preserveAspectRatio="xMidYMid meet">
<metadata>
Created by potrace 1.11, written by Peter Selinger 2001-2013
</metadata>
<g transform="translate(0.000000,1000.000000) scale(0.100000,-0.100000)"
fill="#000000" stroke="none">
<path d="M4749 9746 c-2 -2 -49 -7 -104 -10 -55 -4 -113 -9 -130 -11 -16 -2
-57 -7 -90 -10 -79 -9 -118 -14 -190 -27 -33 -5 -71 -12 -85 -14 -14 -3 -36
-7 -50 -9 -14 -3 -36 -8 -50 -10 -193 -36 -570 -146 -737 -214 -26 -10 -84
-34 -128 -51 -425 -171 -853 -432 -1250 -761 -111 -93 -426 -403 -526 -519
-219 -254 -385 -493 -573 -823 -52 -90 -206 -407 -206 -423 0 -3 -8 -24 -19
-47 -115 -257 -243 -703 -296 -1033 -23 -144 -23 -144 -30 -205 -3 -31 -7 -66
-10 -77 -26 -137 -26 -777 0 -987 40 -319 39 -315 76 -489 48 -227 98 -407
170 -610 27 -77 54 -150 59 -161 5 -11 30 -69 56 -130 99 -236 293 -592 429
-785 25 -36 64 -92 87 -125 143 -208 412 -508 653 -730 347 -320 874 -663
1275 -830 36 -15 83 -35 105 -45 118 -52 201 -81 552 -191 18 -5 40 -12 50
-14 10 -1 45 -10 78 -19 53 -13 122 -27 320 -66 28 -5 104 -16 170 -25 66 -9
134 -18 150 -20 188 -26 839 -26 995 0 14 2 50 7 80 10 30 3 66 8 80 10 14 3
39 7 55 9 156 25 213 35 235 41 8 2 30 7 48 10 183 31 672 186 867 275 11 5
52 23 90 41 91 41 273 131 333 165 570 325 971 659 1392 1160 63 75 214 281
284 388 201 306 339 575 481 941 27 69 121 351 130 390 3 11 18 73 34 137 16
64 32 130 34 145 3 15 10 49 16 74 11 50 45 262 55 344 3 28 8 64 10 80 27
202 28 852 1 1005 -2 14 -7 43 -9 65 -20 159 -30 225 -52 335 -14 69 -28 136
-30 150 -8 42 -44 181 -66 255 -11 39 -20 71 -20 72 2 7 -94 279 -134 381 -77
195 -238 518 -347 697 -97 159 -298 444 -387 549 -162 191 -242 277 -385 416
-269 261 -572 490 -905 685 -126 74 -387 207 -490 250 -36 15 -78 33 -95 40
-152 68 -590 206 -757 240 -16 3 -40 7 -55 10 -16 3 -35 8 -43 10 -8 3 -32 7
-54 11 -21 3 -48 8 -60 10 -57 12 -284 43 -361 50 -27 3 -77 7 -110 10 -66 7
-611 15 -616 10z"/>
</g>
</svg>
