<?xml version="1.0" standalone="no"?>
<!DOCTYPE svg PUBLIC "-//W3C//DTD SVG 20010904//EN"
 "http://www.w3.org/TR/2001/REC-SVG-20010904/DTD/svg10.dtd">
<svg version="1.0" xmlns="http://www.w3.org/2000/svg"
 width="512.000000pt" height="512.000000pt" viewBox="0 0 512.000000 512.000000"
 preserveAspectRatio="xMidYMid meet">
<metadata>
Created by potrace 1.11, written by Peter Selinger 2001-2013
</metadata>
<g transform="translate(0.000000,512.000000) scale(0.100000,-0.100000)"
fill="#000000" stroke="none">
<path d="M3127 4894 c-1 -1 -31 -5 -67 -8 -101 -9 -142 -15 -281 -41 -48 -9
-203 -55 -273 -82 -311 -117 -589 -332 -866 -669 -63 -76 -139 -168 -170 -204
-30 -36 -71 -86 -90 -110 -145 -183 -230 -267 -345 -344 -68 -46 -214 -126
-230 -126 -3 0 -10 -3 -17 -5 -67 -26 -224 -37 -293 -22 -63 15 -85 22 -130
44 -102 48 -179 137 -200 231 -9 42 -22 41 -31 -2 -18 -100 78 -231 222 -304
133 -67 309 -77 462 -26 201 68 381 198 551 399 100 118 97 115 189 227 44 53
85 102 91 110 6 7 48 58 93 112 175 212 366 377 583 504 119 69 351 154 484
177 19 3 37 7 40 9 6 4 79 15 126 20 11 2 50 6 87 10 284 33 571 -22 794 -152
435 -254 689 -674 687 -1134 -1 -115 -16 -232 -58 -443 -24 -123 -132 -380
-223 -530 -132 -219 -331 -461 -497 -605 l-29 -25 19 30 c190 300 354 729 410
1070 21 130 17 329 -10 475 -21 117 -109 316 -178 404 -215 274 -441 384 -787
384 -112 0 -154 -3 -255 -22 -113 -21 -261 -79 -370 -146 -199 -122 -325 -276
-507 -620 -19 -36 -39 -74 -46 -85 -6 -11 -56 -112 -111 -225 -164 -338 -247
-442 -483 -599 -165 -110 -320 -168 -468 -174 -53 -3 -187 13 -235 27 -5 1
-30 8 -55 15 -25 7 -62 22 -83 32 -36 19 -57 18 -57 -1 0 -14 180 -97 249
-115 151 -39 290 -35 431 11 211 69 498 283 617 459 42 63 125 211 157 280
102 223 320 624 356 655 3 3 21 25 40 50 104 134 277 253 449 309 126 41 221
56 361 55 143 0 189 -4 285 -29 65 -17 225 -92 225 -105 0 -5 8 -11 18 -14 18
-6 105 -87 154 -143 90 -104 165 -256 199 -403 34 -144 33 -396 -2 -548 -6
-26 -13 -58 -15 -72 -14 -72 -74 -259 -130 -402 -81 -206 -209 -448 -317 -598
-71 -99 -73 -86 -2 21 108 163 253 522 281 698 2 14 7 36 9 49 8 32 7 219 -1
267 -39 247 -166 442 -339 524 -63 30 -175 66 -235 76 -19 3 -48 8 -65 12 -62
12 -210 4 -289 -17 -163 -42 -304 -135 -611 -405 -41 -36 -62 -54 -118 -99
-108 -88 2 -36 128 60 414 317 474 354 624 389 70 17 214 22 271 11 14 -3 39
-8 55 -12 63 -12 192 -57 235 -81 122 -69 223 -213 265 -378 20 -75 27 -290
12 -377 -20 -122 -111 -376 -193 -540 -39 -79 -154 -261 -160 -255 -2 2 5 29
15 59 82 238 51 469 -84 619 -66 73 -197 134 -330 154 -49 7 -205 8 -237 1
-12 -3 -41 -8 -63 -11 -112 -15 -307 -100 -606 -262 -132 -72 -376 -154 -533
-179 -21 -3 -48 -7 -59 -9 -37 -8 -172 -17 -259 -19 -82 -2 -109 -8 -95 -22 3
-3 77 -7 164 -8 320 -6 562 55 883 222 301 157 372 187 508 215 73 15 273 17
335 3 148 -34 250 -104 303 -208 84 -166 72 -368 -38 -608 -35 -78 -148 -270
-158 -270 -4 0 -30 -15 -57 -34 -59 -41 -172 -98 -228 -116 -49 -16 -184 -86
-247 -129 -27 -18 -90 -53 -140 -78 -51 -24 -105 -56 -120 -71 -34 -32 -46
-27 -138 58 -35 33 -67 60 -71 60 -4 0 -22 -7 -40 -15 l-34 -14 93 -90 93 -89
-58 -12 c-129 -27 -351 34 -444 121 -19 19 -46 43 -60 54 l-24 20 24 -28 c14
-15 22 -29 20 -31 -2 -3 -34 11 -72 30 -37 18 -67 32 -67 29 0 -5 97 -63 180
-108 30 -16 64 -35 75 -42 11 -6 37 -17 57 -24 62 -21 52 -30 -14 -15 -85 20
-253 72 -303 94 -54 24 -277 100 -296 100 -21 0 -80 34 -151 86 -63 46 -155
94 -180 94 -7 -1 3 -9 23 -19 40 -20 109 -67 154 -105 l30 -26 -35 6 c-52 8
-220 6 -260 -4 -26 -6 -4 -8 80 -8 86 0 141 -7 215 -24 55 -13 91 -25 80 -28
-52 -10 -235 -90 -208 -91 6 -1 32 8 58 19 l46 20 -37 -46 c-21 -25 -51 -57
-68 -71 l-31 -25 32 18 c18 10 61 47 94 81 34 35 66 64 70 64 5 1 12 2 17 3 4
2 28 6 53 10 49 8 53 7 219 -55 176 -66 248 -88 355 -112 132 -29 295 -35 367
-13 62 18 53 2 -10 -18 -107 -35 -203 -45 -382 -41 -96 2 -200 6 -230 9 -30 3
-86 8 -125 11 -38 2 -105 13 -147 23 -43 11 -78 16 -78 12 0 -4 14 -10 32 -14
45 -9 33 -14 -51 -21 -41 -3 -77 -7 -80 -9 -3 -2 -22 -7 -43 -10 -45 -7 -132
-41 -176 -68 -44 -27 -34 -35 11 -8 78 46 219 71 388 67 71 -2 132 -6 135 -10
4 -4 -2 -7 -14 -7 -64 0 -289 -87 -347 -135 -24 -20 -18 -18 65 22 63 30 147
61 183 68 10 3 28 7 39 11 41 13 196 29 266 28 39 -1 125 -2 190 -3 104 -1
115 -3 97 -16 -11 -8 -24 -18 -30 -23 -48 -39 -153 -107 -206 -132 -36 -18
-51 -29 -34 -25 58 13 151 63 237 127 82 62 90 65 155 71 77 7 156 34 224 78
l46 29 34 -31 c66 -61 454 -229 531 -229 9 0 42 -9 71 -20 78 -29 250 -49 413
-47 124 2 140 0 131 -13 -20 -30 -129 -113 -187 -141 -33 -16 -60 -31 -60 -34
0 -12 135 51 151 71 6 8 16 14 21 14 5 0 3 -6 -4 -14 -7 -7 -24 -26 -37 -42
-13 -16 -49 -56 -80 -89 -47 -50 -49 -53 -11 -20 53 48 69 64 123 130 23 28
65 75 94 105 l52 55 198 1 c196 1 366 9 433 21 19 3 58 16 85 28 28 12 69 28
90 35 22 7 46 20 54 28 13 13 11 14 -20 7 -19 -4 -78 -22 -132 -40 -96 -34
-100 -34 -263 -33 -91 1 -160 5 -152 8 11 7 210 56 263 66 66 12 244 73 306
104 39 21 61 35 123 80 87 63 170 176 246 335 42 88 100 242 100 263 0 4 -26
-42 -58 -103 -125 -239 -215 -366 -312 -441 -56 -44 -226 -134 -252 -134 -8 0
-18 -3 -22 -7 -3 -4 -12 -8 -19 -10 -7 -1 -60 -16 -119 -32 -60 -16 -108 -27
-108 -23 1 4 47 30 103 57 399 196 621 476 653 825 10 101 13 202 7 196 -3 -3
-7 -21 -9 -40 -6 -90 -28 -198 -61 -296 -73 -212 -211 -386 -411 -517 -81 -53
-365 -203 -385 -203 -6 0 15 24 46 54 31 29 57 57 57 61 0 4 9 20 21 36 40 57
-2 28 -102 -71 -56 -55 -110 -102 -121 -106 -10 -3 -18 -9 -18 -14 0 -11 -103
-60 -125 -60 -9 0 -26 -5 -37 -11 -19 -10 -251 -13 -358 -4 -79 7 -283 45
-346 66 -33 11 -69 21 -80 23 -89 19 -315 116 -397 172 l-48 33 38 24 c21 13
79 45 128 72 214 114 241 129 255 140 8 7 33 18 55 25 82 26 320 152 360 190
25 25 62 47 98 59 62 22 254 111 373 174 68 36 174 126 174 147 0 12 92 114
105 117 6 1 12 10 14 20 3 15 1 15 -12 4 -9 -7 -21 -10 -27 -6 -5 3 -10 -1
-10 -9 0 -9 -4 -15 -9 -14 -4 2 -24 -17 -45 -42 -85 -106 -99 -120 -149 -153
-29 -19 -83 -44 -122 -57 -38 -13 -77 -25 -85 -28 -8 -3 -1 6 15 19 212 167
445 400 560 559 22 30 43 60 48 65 67 80 236 382 284 505 25 63 72 218 79 258
3 15 7 34 10 44 11 35 30 164 43 278 54 503 -196 998 -654 1296 -236 153 -436
212 -743 218 -57 1 -104 1 -105 0z m413 -3117 c0 -2 -12 -14 -27 -28 l-28 -24
24 28 c23 25 31 32 31 24z"/>
<path d="M1717 1159 c7 -7 15 -10 18 -7 3 3 -2 9 -12 12 -14 6 -15 5 -6 -5z"/>
<path d="M3260 410 c-18 -12 -2 -12 25 0 13 6 15 9 5 9 -8 0 -22 -4 -30 -9z"/>
</g>
</svg>
